# xmcd
#
# Track frame offsets:
#	150
#	32764
#	151798
#	192512
#	257683
#	266070
#
# Disc length: 4339 seconds
#
# Revision: 0
# Processed by: cddbd v1.5.2PL0 Copyright (c) Steve Scherf et al.
# Submitted via: EasyCDDAExtractor 16.0.6.1
#
DISCID=4b10f106
DTITLE=Allman Brothers Band - 2005-08-16 - Molson Amphitheatre,Toronto - Disc 
DTITLE=2
DYEAR=2005
DGENRE=Blues
TTITLE0=01 - Statesboro Blues
TTITLE1=02 - Leave My Blues at Home - Drums
TTITLE2=03 - Southbound
TTITLE3=04 - Jessica
TTITLE4=05 - Crowd
TTITLE5=06 - Encore - Whipping Post
EXTD=
EXTT0=
EXTT1=
EXTT2=
EXTT3=
EXTT4=
EXTT5=
PLAYORDER=
